<?xml version="1.0" encoding="UTF-8" standalone="no"?>
<!-- Generator: Adobe Illustrator 21.0.0, SVG Export Plug-In . SVG Version: 6.00 Build 0)  -->

<svg
   version="1.1"
   x="0px"
   y="0px"
   viewBox="0 0 25 25"
   style="enable-background:new 0 0 25 25;"
   xml:space="preserve"
   id="svg908"
   sodipodi:docname="logo.svg"
   inkscape:version="1.1.2 (0a00cf5339, 2022-02-04, custom)"
   xmlns:inkscape="http://www.inkscape.org/namespaces/inkscape"
   xmlns:sodipodi="http://sodipodi.sourceforge.net/DTD/sodipodi-0.dtd"
   xmlns="http://www.w3.org/2000/svg"
   xmlns:svg="http://www.w3.org/2000/svg"><defs
   id="defs912" /><sodipodi:namedview
   id="namedview910"
   pagecolor="#ffffff"
   bordercolor="#666666"
   borderopacity="1.0"
   inkscape:pageshadow="2"
   inkscape:pageopacity="0.0"
   inkscape:pagecheckerboard="0"
   showgrid="false"
   inkscape:zoom="34.92"
   inkscape:cx="12.170676"
   inkscape:cy="12.056128"
   inkscape:window-width="2554"
   inkscape:window-height="1342"
   inkscape:window-x="0"
   inkscape:window-y="64"
   inkscape:window-maximized="1"
   inkscape:current-layer="svg908" />
    <style
   type="text/css"
   id="style779">
        .st0 {
            fill: #E6E6E6;
        }

        .st1 {
            fill: #F2F2F2;
        }

        .st2 {
            fill: #B3B3B3;
        }

        .st3 {
            fill: #CCCCCC;
        }

        .st4 {
            fill: #EFD48F;
        }

        .st5 {
            fill: #D69B09;
        }

        .st6 {
            fill: #E5A507;
        }

        .st7 {
            fill: #F9BD15;
        }

        .st8 {
            fill: #F2C555;
        }
    </style>
    <g
   id="Layer_45">
    </g>
    <ellipse
   style="fill:#000000;fill-rule:evenodd;stroke-width:1.00363"
   id="path940"
   cx="12.530965"
   cy="12.513695"
   rx="12.507282"
   ry="12.467249" /><g
   id="Layer_3"
   transform="translate(1.1658659,-1.3522224)">
        <ellipse
   transform="matrix(0.2752,-0.9614,0.9614,0.2752,-15.8141,26.7429)"
   class="st0"
   cx="9.8000002"
   cy="23.9"
   rx="0.30000001"
   ry="0.69999999"
   id="ellipse782" />
    </g>
    <g
   id="Layer_4"
   transform="translate(1.1658659,-1.3522224)">
        <ellipse
   transform="matrix(0.5211,-0.8535,0.8535,0.5211,-16.2528,16.7549)"
   class="st1"
   cx="6.8000002"
   cy="22.9"
   rx="0.30000001"
   ry="0.69999999"
   id="ellipse785" />
    </g>
    <g
   id="Layer_5"
   transform="translate(1.1658659,-1.3522224)">
        <ellipse
   transform="matrix(0.6391,-0.7692,0.7692,0.6391,-14.8162,12.0083)"
   class="st1"
   cx="5.4000001"
   cy="21.799999"
   rx="0.30000001"
   ry="0.69999999"
   id="ellipse788" />
    </g>
    <g
   id="Layer_6"
   transform="translate(1.1658659,-1.3522224)">
        <ellipse
   transform="matrix(0.7458,-0.6662,0.6662,0.7458,-12.6559,7.8969)"
   class="st1"
   cx="4"
   cy="20.5"
   rx="0.30000001"
   ry="0.69999999"
   id="ellipse791" />
    </g>
    <g
   id="Layer_7"
   transform="translate(1.1658659,-1.3522224)">
        <ellipse
   transform="matrix(0.8476,-0.5306,0.5306,0.8476,-9.7399,4.409)"
   class="st1"
   cx="2.8"
   cy="19.200001"
   rx="0.30000001"
   ry="0.69999999"
   id="ellipse794" />
    </g>
    <g
   id="Layer_8"
   transform="translate(1.1658659,-1.3522224)">
        <ellipse
   transform="matrix(0.7004,-0.7138,0.7138,0.7004,-10.4774,12.0809)"
   class="st2"
   cx="9.1999998"
   cy="18.5"
   rx="0.80000001"
   ry="0.89999998"
   id="ellipse797" />
    </g>
    <g
   id="Layer_9"
   transform="translate(1.1658659,-1.3522224)">
        <ellipse
   transform="matrix(0.5035,-0.864,0.864,0.5035,-13.269,17.6737)"
   class="st2"
   cx="8.6999998"
   cy="20.4"
   rx="0.60000002"
   ry="0.89999998"
   id="ellipse800" />
    </g>
    <g
   id="Layer_10"
   transform="translate(1.1658659,-1.3522224)">
        <ellipse
   transform="matrix(0.7004,-0.7138,0.7138,0.7004,-11.3857,10.6812)"
   class="st2"
   cx="7"
   cy="18.9"
   rx="0.60000002"
   ry="0.89999998"
   id="ellipse803" />
    </g>
    <g
   id="Layer_11"
   transform="translate(1.1658659,-1.3522224)">
        <ellipse
   transform="matrix(0.7245,-0.6892,0.6892,0.7245,-11.7238,8.899)"
   class="st3"
   cx="5.3000002"
   cy="19.1"
   rx="0.5"
   ry="0.80000001"
   id="ellipse806" />
    </g>
    <g
   id="Layer_12"
   transform="translate(1.1658659,-1.3522224)">
        <ellipse
   transform="matrix(0.9051,-0.4251,0.4251,0.9051,-7.0962,3.2935)"
   class="st3"
   cx="3.8"
   cy="17.5"
   rx="0.5"
   ry="0.80000001"
   id="ellipse809" />
    </g>
    <g
   id="Layer_13"
   transform="translate(1.1658659,-1.3522224)">
        <ellipse
   transform="matrix(0.1974,-0.9803,0.9803,0.1974,-13.9912,30.5279)"
   class="st3"
   cx="11.6"
   cy="23.799999"
   rx="0.30000001"
   ry="0.80000001"
   id="ellipse812" />
    </g>
    <g
   id="Layer_14"
   transform="translate(1.1658659,-1.3522224)">
        <ellipse
   transform="matrix(0.2972,-0.9548,0.9548,0.2972,-14.8308,25.7835)"
   class="st3"
   cx="10.1"
   cy="23"
   rx="0.40000001"
   ry="0.80000001"
   id="ellipse815" />
    </g>
    <g
   id="Layer_15"
   transform="translate(1.1658659,-1.3522224)">
        <ellipse
   transform="matrix(0.4125,-0.911,0.911,0.4125,-16.0326,21.0658)"
   class="st0"
   cx="8.3000002"
   cy="23"
   rx="0.30000001"
   ry="0.69999999"
   id="ellipse818" />
    </g>
    <g
   id="Layer_16"
   transform="translate(1.1658659,-1.3522224)">
        <ellipse
   transform="matrix(0.583,-0.8125,0.8125,0.583,-14.9974,14.6623)"
   class="st0"
   cx="6.8000002"
   cy="21.9"
   rx="0.40000001"
   ry="0.80000001"
   id="ellipse821" />
    </g>
    <g
   id="Layer_17"
   transform="translate(1.1658659,-1.3522224)">
        <ellipse
   transform="matrix(0.3897,-0.9209,0.9209,0.3897,-14.9881,21.1391)"
   class="st3"
   cx="8.5"
   cy="21.9"
   rx="0.5"
   ry="0.80000001"
   id="ellipse824" />
    </g>
    <g
   id="Layer_18"
   transform="translate(1.1658659,-1.3522224)">
        <ellipse
   transform="matrix(0.6129,-0.7901,0.7901,0.6129,-13.6247,13.364)"
   class="st3"
   cx="6.8000002"
   cy="20.6"
   rx="0.5"
   ry="0.80000001"
   id="ellipse827" />
    </g>
    <g
   id="Layer_19"
   transform="translate(1.1658659,-1.3522224)">
        <ellipse
   transform="matrix(0.6811,-0.7322,0.7322,0.6811,-13.4153,10.436)"
   class="st0"
   cx="5.3000002"
   cy="20.6"
   rx="0.40000001"
   ry="0.80000001"
   id="ellipse830" />
    </g>
    <g
   id="Layer_20"
   transform="translate(1.1658659,-1.3522224)">
        <ellipse
   transform="matrix(0.8179,-0.5754,0.5754,0.8179,-10.3393,5.72)"
   class="st0"
   cx="3.9000001"
   cy="19.200001"
   rx="0.40000001"
   ry="0.69999999"
   id="ellipse833" />
    </g>
    <g
   id="Layer_21"
   transform="translate(1.1658659,-1.3522224)">
        <ellipse
   transform="matrix(0.9051,-0.4251,0.4251,0.9051,-7.2643,2.7957)"
   class="st0"
   cx="2.5999999"
   cy="17.700001"
   rx="0.40000001"
   ry="0.69999999"
   id="ellipse836" />
    </g>
    <g
   id="Layer_22"
   transform="translate(1.1658659,-1.3522224)">
        <ellipse
   transform="matrix(0.9051,-0.4251,0.4251,0.9051,-7.3751,2.4424)"
   class="st1"
   cx="1.8"
   cy="17.700001"
   rx="0.2"
   ry="0.69999999"
   id="ellipse839" />
    </g>
    <g
   id="Layer_23"
   transform="translate(1.1658659,-1.3522224)">
        <ellipse
   transform="matrix(0.9528,-0.3035,0.3035,0.9528,-4.8307,1.2622)"
   class="st0"
   cx="1.6"
   cy="16.200001"
   rx="0.30000001"
   ry="0.69999999"
   id="ellipse842" />
    </g>
    <g
   id="Layer_24"
   transform="translate(-0.65209388,1.7416605)">
        <ellipse
   transform="matrix(0.2902,-0.957,0.957,0.2902,9.8195,15.2758)"
   class="st4"
   cx="15.2"
   cy="1"
   rx="0.30000001"
   ry="0.69999999"
   id="ellipse845" />
    </g>
    <g
   id="Layer_25"
   transform="translate(-0.65209388,1.7416605)">
        <ellipse
   transform="matrix(0.5344,-0.8452,0.8452,0.5344,6.7361,16.3583)"
   class="st4"
   cx="18.200001"
   cy="2.0999999"
   rx="0.30000001"
   ry="0.69999999"
   id="ellipse848" />
    </g>
    <g
   id="Layer_26"
   transform="translate(-0.65209388,1.7416605)">
        <ellipse
   transform="matrix(0.6511,-0.759,0.759,0.6511,4.4493,15.9905)"
   class="st4"
   cx="19.6"
   cy="3.2"
   rx="0.30000001"
   ry="0.69999999"
   id="ellipse851" />
    </g>
    <g
   id="Layer_27"
   transform="translate(-0.65209388,1.7416605)">
        <ellipse
   transform="matrix(0.7562,-0.6544,0.6544,0.7562,2.2085,14.7994)"
   class="st4"
   cx="21"
   cy="4.4000001"
   rx="0.30000001"
   ry="0.69999999"
   id="ellipse854" />
    </g>
    <g
   id="Layer_28"
   transform="translate(-0.65209388,1.7416605)">
        <ellipse
   transform="matrix(0.8558,-0.5173,0.5173,0.8558,0.1808,12.2996)"
   class="st4"
   cx="22.200001"
   cy="5.8000002"
   rx="0.30000001"
   ry="0.69999999"
   id="ellipse857" />
    </g>
    <g
   id="Layer_29"
   transform="translate(-0.65209388,1.7416605)">

        <ellipse
   transform="matrix(0.7115,-0.7027,0.7027,0.7115,0.08453147,12.9408)"
   class="st5"
   cx="15.8"
   cy="6.4000001"
   rx="0.80000001"
   ry="0.89999998"
   id="ellipse860" />
    </g>
    <g
   id="Layer_30"
   transform="translate(-0.65209388,1.7416605)">
        <ellipse
   transform="matrix(0.517,-0.856,0.856,0.517,3.9808,16.0788)"
   class="st6"
   cx="16.200001"
   cy="4.5"
   rx="0.60000002"
   ry="0.89999998"
   id="ellipse863" />
    </g>
    <g
   id="Layer_31"
   transform="translate(-0.65209388,1.7416605)">
        <ellipse
   transform="matrix(0.7115,-0.7027,0.7027,0.7115,0.9432,14.3349)"
   class="st6"
   cx="17.9"
   cy="6"
   rx="0.60000002"
   ry="0.89999998"
   id="ellipse866" />
    </g>
    <g
   id="Layer_32"
   transform="translate(-0.65209388,1.7416605)">
        <ellipse
   transform="matrix(0.7353,-0.6778,0.6778,0.7353,1.2598,14.8888)"
   class="st7"
   cx="19.700001"
   cy="5.8000002"
   rx="0.5"
   ry="0.80000001"
   id="ellipse869" />
    </g>
    <g
   id="Layer_33"
   transform="translate(-0.65209388,1.7416605)">
        <ellipse
   transform="matrix(0.9117,-0.4109,0.4109,0.9117,-1.1867,9.3267)"
   class="st7"
   cx="21.1"
   cy="7.4000001"
   rx="0.5"
   ry="0.80000001"
   id="ellipse872" />
    </g>
    <g
   id="Layer_34"
   transform="translate(-0.65209388,1.7416605)">
        <ellipse
   transform="matrix(0.2127,-0.9771,0.9771,0.2127,9.523,13.9004)"
   class="st8"
   cx="13.4"
   cy="1"
   rx="0.30000001"
   ry="0.80000001"
   id="ellipse875" />
    </g>
    <g
   id="Layer_35"
   transform="translate(-0.65209388,1.7416605)">
        <ellipse
   transform="matrix(0.3122,-0.95,0.95,0.3122,8.4526,15.4879)"
   class="st7"
   cx="14.9"
   cy="1.9"
   rx="0.40000001"
   ry="0.80000001"
   id="ellipse878" />
    </g>
    <g
   id="Layer_36"
   transform="translate(-0.65209388,1.7416605)">
        <ellipse
   transform="matrix(0.4267,-0.9044,0.9044,0.4267,7.8237,16.2194)"
   class="st8"
   cx="16.700001"
   cy="1.9"
   rx="0.30000001"
   ry="0.69999999"
   id="ellipse881" />
    </g>
    <g
   id="Layer_37"
   transform="translate(-0.65209388,1.7416605)">
        <ellipse
   transform="matrix(0.5957,-0.8032,0.8032,0.5957,4.9702,15.8401)"
   class="st8"
   cx="18.200001"
   cy="3"
   rx="0.40000001"
   ry="0.80000001"
   id="ellipse884" />
    </g>
    <g
   id="Layer_38"
   transform="translate(-0.65209388,1.7416605)">
        <ellipse
   transform="matrix(0.4041,-0.9147,0.9147,0.4041,7.098,16.9362)"
   class="st7"
   cx="16.5"
   cy="3"
   rx="0.5"
   ry="0.80000001"
   id="ellipse887" />
    </g>
    <g
   id="Layer_39"
   transform="translate(-0.65209388,1.7416605)">
        <ellipse
   transform="matrix(0.6253,-0.7804,0.7804,0.6253,3.4202,15.7941)"
   class="st7"
   cx="18.200001"
   cy="4.3000002"
   rx="0.5"
   ry="0.80000001"
   id="ellipse890" />
    </g>
    <g
   id="Layer_40"
   transform="translate(-0.65209388,1.7416605)">
        <ellipse
   transform="matrix(0.6925,-0.7214,0.7214,0.6925,2.9375,15.5528)"
   class="st8"
   cx="19.700001"
   cy="4.3000002"
   rx="0.40000001"
   ry="0.80000001"
   id="ellipse893" />
    </g>
    <g
   id="Layer_41"
   transform="translate(-0.65209388,1.7416605)">
        <ellipse
   transform="matrix(0.8268,-0.5625,0.5625,0.8268,0.4035,12.868)"
   class="st8"
   cx="21.1"
   cy="5.8000002"
   rx="0.40000001"
   ry="0.69999999"
   id="ellipse896" />
    </g>
    <g
   id="Layer_42"
   transform="translate(-0.65209388,1.7416605)">
        <ellipse
   transform="matrix(0.9117,-0.4109,0.4109,0.9117,-1.0358,9.8107)"
   class="st8"
   cx="22.299999"
   cy="7.3000002"
   rx="0.40000001"
   ry="0.69999999"
   id="ellipse899" />
    </g>
    <g
   id="Layer_43"
   transform="translate(-0.65209388,1.7416605)">
        <ellipse
   transform="matrix(0.9117,-0.4109,0.4109,0.9117,-0.9369,10.154)"
   class="st4"
   cx="23.200001"
   cy="7.3000002"
   rx="0.2"
   ry="0.69999999"
   id="ellipse902" />
    </g>
    <g
   id="Layer_44"
   transform="translate(-0.65209388,1.7416605)">
        <ellipse
   transform="matrix(0.9575,-0.2885,0.2885,0.9575,-1.5594,7.0897)"
   class="st8"
   cx="23.299999"
   cy="8.8000002"
   rx="0.30000001"
   ry="0.69999999"
   id="ellipse905" />
    </g>
</svg>
